<svg xmlns="http://www.w3.org/2000/svg" width="35.297" height="35.299" viewBox="0 0 35.297 35.299"><g transform="translate(0 0.003)"><g transform="translate(0 -0.003)"><path d="M25.885,19.824a14.16,14.16,0,0,0-2.726.271,18.979,18.979,0,0,0,2.726-9.683,28.666,28.666,0,0,0-1.265-8.2,1.767,1.767,0,1,0-3.353,1.114,25.414,25.414,0,0,1,1.089,7.09,16.313,16.313,0,0,1-3.72,10.043c-.337.438-.71.874-1.1,1.3-.085-.027-.171-.045-.256-.065q-.3-.461-.585-.879C24.638,13.8,19.419,1.478,19.365,1.352A.588.588,0,0,0,18.825,1C1.059,1,.041,17.843.012,18.507a.813.813,0,0,0-.012.14V21a.572.572,0,0,0,.025.161,20.148,20.148,0,0,0,4.623,7.67.588.588,0,0,1,.15.263l.909,3.632A2.337,2.337,0,0,0,7.023,34.3c1.659.745,5.472,1.994,12.391,1.994,7.608,0,11.825-1.515,13.284-2.167a2.334,2.334,0,0,0,1.059-.95A11.382,11.382,0,0,0,35.3,27.472v-3.53a.588.588,0,0,0-.172-.416,13.982,13.982,0,0,0-9.24-3.7ZM34.121,24.2v2.078c-1.5-1.075-4.543-2.924-7.648-2.924A9.247,9.247,0,0,0,21.4,24.992a15.369,15.369,0,0,1-1.467.788A3.515,3.515,0,0,0,20,25.119a3.633,3.633,0,0,0-.079-.706,24.938,24.938,0,0,0,2.338-2.9A12.759,12.759,0,0,1,25.885,21,13.015,13.015,0,0,1,34.121,24.2Zm-20.759-.747c-.145-.433-.289-.9-.441-1.438a4.4,4.4,0,0,0-2.3-2.9c-1.995-.979-5.01-.654-9.446,1.027V18.72a8.494,8.494,0,0,1,5.883-2.426c4.306,0,5.637.755,8.373,4.749.132.193.269.4.412.606a3.539,3.539,0,0,0-2.483,1.8Zm3.111-.688a2.28,2.28,0,0,1,.361.029,2.379,2.379,0,0,1,.624.185,2.177,2.177,0,0,1,.477.294,2.387,2.387,0,0,1,.788,1.133,2.561,2.561,0,0,1,.1.712,2.394,2.394,0,0,1-.388,1.3,2.353,2.353,0,0,1-4.308-1.1c0-.069-.01-.136-.01-.205A2.353,2.353,0,0,1,16.472,22.765Zm3.1-1.594a17.461,17.461,0,0,0,3.964-10.76,26.553,26.553,0,0,0-1.148-7.463A.589.589,0,0,1,23.5,2.584a27.89,27.89,0,0,1,1.2,7.828,18.2,18.2,0,0,1-3.3,10.271,23.547,23.547,0,0,1-1.97,2.523,3.471,3.471,0,0,0-.76-.845l-.007,0-.007-.007c-.014-.012-.031-.021-.045-.032.334-.374.657-.759.954-1.144ZM18.428,2.178c.758,1.992,4.04,11.834-2.4,17.661-2.709-3.815-4.5-4.722-8.965-4.722a10.3,10.3,0,0,0-5.682,1.841C2.063,12.81,5.108,2.382,18.428,2.178Zm14.317,30.4a1.157,1.157,0,0,1-.526.471c-1.392.624-5.423,2.068-12.8,2.068-6.7,0-10.336-1.184-11.906-1.89a1.165,1.165,0,0,1-.658-.788L5.942,28.81a1.761,1.761,0,0,0-.445-.8,19.643,19.643,0,0,1-4.172-6.67c4.2-1.623,7.079-2.01,8.779-1.177a3.23,3.23,0,0,1,1.684,2.168,14.978,14.978,0,0,0,1.194,3.224,3.517,3.517,0,0,0,6.292,1.7A10.6,10.6,0,0,0,22,26a8.058,8.058,0,0,1,4.476-1.474c3.337,0,6.76,2.521,7.636,3.213a10.231,10.231,0,0,1-1.365,4.838Z" transform="translate(0 -0.997)" fill="#555"/></g></g></svg>