<svg id="contact" xmlns="http://www.w3.org/2000/svg" width="24.387" height="27.897" viewBox="0 0 24.387 27.897">
  <g id="Group_286" data-name="Group 286">
    <path id="Path_569" data-name="Path 569" d="M29.131,9.543a9.543,9.543,0,0,1,19.086,0,2.879,2.879,0,0,1,2.651,3.128v4.984a2.959,2.959,0,0,1-3.181,3.181H46.149a.53.53,0,0,1-.53-.53V10.041a.53.53,0,0,1,.53-.53h1.007a8.483,8.483,0,0,0-16.965,0H31.2a.53.53,0,0,1,.53.53V20.289a.53.53,0,0,1-.53.53H30.191c.148,3.642,1.9,4.5,5.392,4.65v-.355a1.06,1.06,0,0,1,1.06-1.06h3.335a1.06,1.06,0,0,1,1.06,1.06v1.723a1.06,1.06,0,0,1-1.06,1.06H36.633a1.06,1.06,0,0,1-1.06-1.06v-.307c-3.361-.154-6.267-.848-6.441-5.742A2.879,2.879,0,0,1,26.48,17.66V12.676A2.874,2.874,0,0,1,29.131,9.543Zm17.548.991v9.225h1.034a1.925,1.925,0,0,0,2.121-2.121V12.655a1.927,1.927,0,0,0-2.121-2.121Zm-10.047,15.5v.806h3.345V25.119H36.633ZM27.54,17.654a1.927,1.927,0,0,0,2.121,2.121h1.007v-9.2H29.634a1.925,1.925,0,0,0-2.121,2.121Z" transform="translate(-26.48)" fill="#fff"/>
  </g>
</svg>
