<svg xmlns="http://www.w3.org/2000/svg" width="27.905" height="27.908" viewBox="0 0 27.905 27.908">
  <path id="home" d="M27.656,12.138l0,0L16.269.752a2.569,2.569,0,0,0-3.634,0L1.257,12.13l-.011.012a2.568,2.568,0,0,0,1.71,4.377c.026,0,.053,0,.079,0h.454V24.9A3.01,3.01,0,0,0,6.5,27.907h4.454a.818.818,0,0,0,.818-.818V20.522a1.374,1.374,0,0,1,1.372-1.372h2.627a1.373,1.373,0,0,1,1.372,1.372V27.09a.818.818,0,0,0,.818.818H22.41A3.01,3.01,0,0,0,25.417,24.9V16.523h.421a2.57,2.57,0,0,0,1.818-4.385ZM26.5,14.614a.928.928,0,0,1-.66.274H24.6a.818.818,0,0,0-.818.818v9.2a1.373,1.373,0,0,1-1.372,1.372H18.773V20.522a3.01,3.01,0,0,0-3.007-3.007H13.139a3.011,3.011,0,0,0-3.007,3.007v5.751H6.5A1.373,1.373,0,0,1,5.124,24.9v-9.2a.818.818,0,0,0-.818-.818H3.089l-.038,0a.933.933,0,0,1-.643-1.593h0L13.792,1.908a.933.933,0,0,1,1.321,0L26.494,13.289l.005.005a.936.936,0,0,1,0,1.319Zm0,0" transform="translate(-0.5 0.001)" fill="#fff"/>
</svg>
