<svg xmlns="http://www.w3.org/2000/svg" width="25.207" height="27.908" viewBox="0 0 25.207 27.908">
  <path id="hookah" d="M26.529,5.951a2.661,2.661,0,0,0-1.894.785l-1.28,1.28-.132-.132a.45.45,0,0,0-.568-.056l-2.684,1.79a.444.444,0,0,0-.535.067l-.846.846a2.158,2.158,0,0,0-.636,1.537v.45L17.475,13a2.671,2.671,0,0,0-.289-.347l-.443-.443a1.326,1.326,0,0,0-.04-1.753,1.332,1.332,0,0,0-.1-1.9V7.707a2.682,2.682,0,0,0,1.428-.746l.559-.559h.039a1.125,1.125,0,1,0,0-2.251H17.24l-.132-.132a1.7,1.7,0,0,1-.48-.97A1.781,1.781,0,0,0,17.054,1.9V1.45A.45.45,0,0,0,16.6,1H13.9a.45.45,0,0,0-.45.45V1.9a1.781,1.781,0,0,0,.426,1.149,1.706,1.706,0,0,1-.48.97l-.132.132H11.877a1.125,1.125,0,0,0,0,2.251h.039l.559.56a2.685,2.685,0,0,0,1.428.746v.846a1.332,1.332,0,0,0-.1,1.9,1.326,1.326,0,0,0-.04,1.753l-.443.443a2.671,2.671,0,0,0-.289.347l-.479-.479v-.45a2.159,2.159,0,0,0-.636-1.537l-.846-.846a.45.45,0,0,0-.636,0L8.183,11.935a.45.45,0,0,0,0,.636l.846.846a2.159,2.159,0,0,0,1.537.636h.45l2.119,2.119.009-.009q.083.1.177.2l.054.054A1.344,1.344,0,0,0,13,18.654v.4a2.684,2.684,0,0,1-.791,1.91l-1.746,1.746a3.6,3.6,0,0,0-1.049,2.266,4.945,4.945,0,0,1-3.166-4.616V15.4a1.345,1.345,0,0,0,.9-2.35v-2.5a1.334,1.334,0,0,0-.008-2.005L6.7,4.106A.45.45,0,0,0,6.251,3.7h-.9a.45.45,0,0,0-.448.405L4.459,8.546a1.333,1.333,0,0,0-.009,2.005v2.5a1.345,1.345,0,0,0,.9,2.349v4.951A5.842,5.842,0,0,0,9.465,25.94a3.637,3.637,0,0,0,3.569,2.968h4.437a3.637,3.637,0,0,0,3.507-2.7h2.377a5.858,5.858,0,0,0,5.852-5.852V8.63a2.681,2.681,0,0,0-2.678-2.678ZM4.9,9.552a.451.451,0,0,1,.45-.45h.9a.45.45,0,1,1,0,.9h-.9A.451.451,0,0,1,4.9,9.552ZM5.843,4.6,6.2,8.2H5.4l.36-3.6Zm.407,6.3v.45h-.9V10.9Zm-.9,1.35h.9v.45h-.9Zm-.45,1.8a.451.451,0,0,1,.45-.45h.9a.45.45,0,1,1,0,.9h-.9A.451.451,0,0,1,4.9,14.054ZM22.848,8.781l.378.379-1.471,2.207-1.114-1.114Zm-3.994,3.285a1.265,1.265,0,0,1,.373-.9l.528-.528,1.614,1.614-.528.528a1.264,1.264,0,0,1-.9.373h-.45l-.636-.636ZM18.4,13.34l.264.264-.722.722a2.662,2.662,0,0,0-.071-.456ZM16.6,18.1H13.9a.45.45,0,1,1,0-.9h2.7a.45.45,0,1,1,0,.9Zm-2.251-6.752a.451.451,0,0,1,.45-.45h.9a.45.45,0,1,1,0,.9h-.9A.451.451,0,0,1,14.353,11.353Zm0-1.8a.451.451,0,0,1,.45-.45h.9a.45.45,0,1,1,0,.9h-.9A.451.451,0,0,1,14.353,9.552Zm1.8-7.652a.9.9,0,1,1-1.8,0ZM14.679,3.6a1.659,1.659,0,0,0,1.149,0,2.618,2.618,0,0,0,.252.553H14.426a2.576,2.576,0,0,0,.253-.553ZM11.652,5.276a.225.225,0,0,1,.225-.225h6.752a.225.225,0,1,1,0,.45H11.877A.225.225,0,0,1,11.652,5.276ZM17.3,6.4a1.784,1.784,0,0,1-1.179.45H14.385a1.784,1.784,0,0,1-1.179-.45Zm-2.5,1.35h.9V8.2h-.9Zm-.846,5.533.582-.582h1.428l.582.582a1.724,1.724,0,0,1,0,2.437l-.582.582H14.539l-.582-.582a1.724,1.724,0,0,1,0-2.437Zm-1.4,1.041-.722-.722.264-.264.53.53A2.608,2.608,0,0,0,12.561,14.326Zm-2.9-1.545-.528-.528,1.614-1.614.528.528a1.265,1.265,0,0,1,.373.9v.45l-.636.636h-.45A1.264,1.264,0,0,1,9.665,12.781Zm7.807,15.227H13.035A2.733,2.733,0,0,1,11.1,23.343L12.848,21.6A3.579,3.579,0,0,0,13.9,19.051v-.045h2.7v.045A3.577,3.577,0,0,0,17.658,21.6L19.4,23.343a2.733,2.733,0,0,1-1.932,4.665Zm10.835-7.652a4.957,4.957,0,0,1-4.951,4.951H21.1c0-.011,0-.021,0-.032a3.61,3.61,0,0,0-1.064-2.569l-1.746-1.746a2.685,2.685,0,0,1-.791-1.91v-.4a1.344,1.344,0,0,0-.372-2.242l.054-.054a2.59,2.59,0,0,0,.177-.2l.009.009,2.119-2.119h.45a2.159,2.159,0,0,0,1.537-.636l.846-.846a.444.444,0,0,0,.067-.535l1.79-2.684a.45.45,0,0,0-.056-.568l-.132-.132,1.28-1.28A1.778,1.778,0,0,1,28.307,8.63Z" transform="translate(-4 -1)" fill="#fff"/>
</svg>
