<svg id="instagram" xmlns="http://www.w3.org/2000/svg" width="17.11" height="17.113" viewBox="0 0 17.11 17.113">
  <path id="Path_1127" data-name="Path 1127" d="M17.515,5.031a6.253,6.253,0,0,0-.4-2.076,4.384,4.384,0,0,0-2.5-2.5,6.269,6.269,0,0,0-2.076-.4C11.621.01,11.33,0,9.007,0S6.393.01,5.48.05A6.255,6.255,0,0,0,3.4.448a4.175,4.175,0,0,0-1.518.99A4.213,4.213,0,0,0,.9,2.952,6.27,6.27,0,0,0,.5,5.028C.459,5.944.449,6.235.449,8.558s.01,2.614.05,3.527a6.253,6.253,0,0,0,.4,2.076,4.383,4.383,0,0,0,2.5,2.5,6.27,6.27,0,0,0,2.076.4c.913.04,1.2.05,3.527.05s2.614-.01,3.527-.05a6.252,6.252,0,0,0,2.076-.4,4.377,4.377,0,0,0,2.5-2.5,6.274,6.274,0,0,0,.4-2.076c.04-.913.05-1.2.05-3.527s0-2.614-.043-3.527Zm-1.541,6.987a4.691,4.691,0,0,1-.294,1.588,2.839,2.839,0,0,1-1.625,1.625,4.707,4.707,0,0,1-1.588.294c-.9.04-1.173.05-3.457.05s-2.557-.01-3.457-.05a4.688,4.688,0,0,1-1.588-.294,2.633,2.633,0,0,1-.983-.639,2.661,2.661,0,0,1-.639-.983,4.708,4.708,0,0,1-.294-1.588c-.04-.9-.05-1.173-.05-3.457s.01-2.557.05-3.457A4.688,4.688,0,0,1,2.344,3.52a2.6,2.6,0,0,1,.642-.983A2.657,2.657,0,0,1,3.969,1.9,4.71,4.71,0,0,1,5.557,1.6c.9-.04,1.173-.05,3.457-.05s2.557.01,3.457.05a4.691,4.691,0,0,1,1.588.294,2.631,2.631,0,0,1,.983.638,2.66,2.66,0,0,1,.639.983,4.71,4.71,0,0,1,.294,1.588c.04.9.05,1.173.05,3.457s-.01,2.551-.05,3.453Zm0,0" transform="translate(-0.449 0)" fill="#fff"/>
  <path id="Path_1128" data-name="Path 1128" d="M129.345,124.5a4.4,4.4,0,1,0,4.4,4.4A4.4,4.4,0,0,0,129.345,124.5Zm0,7.248A2.852,2.852,0,1,1,132.2,128.9,2.852,2.852,0,0,1,129.345,131.748Zm0,0" transform="translate(-120.787 -120.338)" fill="#fff"/>
  <path id="Path_1129" data-name="Path 1129" d="M364.5,89.628a1.026,1.026,0,1,1-1.026-1.026A1.026,1.026,0,0,1,364.5,89.628Zm0,0" transform="translate(-350.348 -85.64)" fill="#fff"/>
</svg>
