<svg xmlns="http://www.w3.org/2000/svg" width="20.591" height="20.592" viewBox="0 0 20.591 20.592">
  <g id="link" transform="translate(0 0)">
    <g id="Group_312" data-name="Group 312" transform="translate(6.924 0)">
      <g id="Group_311" data-name="Group 311" transform="translate(0 0)">
        <path id="Path_1130" data-name="Path 1130" d="M184.413,1.413a4.826,4.826,0,0,0-6.825,0l-4.034,4.034a4.872,4.872,0,0,0,0,6.825,4.593,4.593,0,0,0,.97.736l.736-.736a1.657,1.657,0,0,0,.3-1.455,2.332,2.332,0,0,1-.3-.251,2.439,2.439,0,0,1,0-3.413l4.033-4.033a2.413,2.413,0,1,1,3.413,3.413L180.041,9.2a6.946,6.946,0,0,1,.3,3.1c.012-.011.026-.019.037-.03l4.034-4.034A4.826,4.826,0,0,0,184.413,1.413Z" transform="translate(-172.159 0)" fill="#0f0f10"/>
      </g>
    </g>
    <g id="Group_314" data-name="Group 314" transform="translate(0 7.27)">
      <g id="Group_313" data-name="Group 313">
        <path id="Path_1131" data-name="Path 1131" d="M12.585,181.512a4.594,4.594,0,0,0-.97-.736l-.736.736a1.657,1.657,0,0,0-.3,1.455,2.324,2.324,0,0,1,.3.251,2.439,2.439,0,0,1,0,3.413l-4.346,4.346a2.413,2.413,0,0,1-3.413-3.413L6.1,184.586a6.945,6.945,0,0,1-.3-3.1c-.012.011-.026.019-.037.03l-4.346,4.346a4.826,4.826,0,1,0,6.825,6.825l4.346-4.346A4.869,4.869,0,0,0,12.585,181.512Z" transform="translate(0 -180.776)" fill="#0f0f10"/>
      </g>
    </g>
  </g>
</svg>
