<svg id="question" xmlns="http://www.w3.org/2000/svg" width="16.813" height="27.591" viewBox="0 0 16.813 27.591">
  <path id="Path_757" data-name="Path 757" d="M199.233,392a3.233,3.233,0,1,0,3.233,3.233A3.237,3.237,0,0,0,199.233,392Zm0,4.85a1.617,1.617,0,1,1,1.617-1.617A1.618,1.618,0,0,1,199.233,396.85Z" transform="translate(-190.827 -370.876)" fill="#fff"/>
  <path id="Path_758" data-name="Path 758" d="M108.407,0A8.416,8.416,0,0,0,100,8.407v.808h6.467V8.407a1.94,1.94,0,1,1,3.193,1.48L105.173,13.7v5.806h6.467V16.691l2.208-1.877A8.406,8.406,0,0,0,108.407,0ZM112.8,13.582l-2.778,2.362v1.947H106.79V14.449l3.917-3.33a3.557,3.557,0,1,0-5.764-3.52h-3.278A6.79,6.79,0,1,1,112.8,13.582Z" transform="translate(-100)" fill="#fff"/>
</svg>
