<svg xmlns="http://www.w3.org/2000/svg" width="21.062" height="17.113" viewBox="0 0 21.062 17.113">
  <path id="twitter" d="M21.062,50.026a9,9,0,0,1-2.488.682,4.294,4.294,0,0,0,1.9-2.387,8.629,8.629,0,0,1-2.738,1.045,4.318,4.318,0,0,0-7.469,2.953,4.446,4.446,0,0,0,.1.985,12.222,12.222,0,0,1-8.9-4.517,4.319,4.319,0,0,0,1.327,5.771,4.264,4.264,0,0,1-1.951-.532v.047A4.338,4.338,0,0,0,4.3,58.317a4.31,4.31,0,0,1-1.132.142,3.818,3.818,0,0,1-.817-.074,4.359,4.359,0,0,0,4.035,3.008,8.676,8.676,0,0,1-5.354,1.842A8.089,8.089,0,0,1,0,63.175a12.156,12.156,0,0,0,6.624,1.938,12.205,12.205,0,0,0,12.29-12.287c0-.191-.007-.375-.016-.558A8.614,8.614,0,0,0,21.062,50.026Z" transform="translate(0 -48)" fill="#fff"/>
</svg>
