<svg xmlns="http://www.w3.org/2000/svg" width="25.343" height="20.591" viewBox="0 0 25.343 20.591">
  <path id="twitter-black" d="M25.343,50.438a10.832,10.832,0,0,1-2.994.82,5.166,5.166,0,0,0,2.286-2.872,10.383,10.383,0,0,1-3.295,1.258A5.2,5.2,0,0,0,12.353,53.2a5.35,5.35,0,0,0,.12,1.185A14.706,14.706,0,0,1,1.764,48.947a5.2,5.2,0,0,0,1.6,6.944,5.131,5.131,0,0,1-2.347-.64v.057a5.219,5.219,0,0,0,4.163,5.105,5.185,5.185,0,0,1-1.362.171A4.594,4.594,0,0,1,2.83,60.5a5.245,5.245,0,0,0,4.855,3.619,10.44,10.44,0,0,1-6.442,2.216A9.733,9.733,0,0,1,0,66.26a14.627,14.627,0,0,0,7.97,2.332A14.686,14.686,0,0,0,22.758,53.807c0-.23-.008-.451-.019-.672A10.365,10.365,0,0,0,25.343,50.438Z" transform="translate(0 -48)" fill="#0f0f10"/>
</svg>
