<svg id="whatsapp" xmlns="http://www.w3.org/2000/svg" width="19.682" height="19.678" viewBox="0 0 19.682 19.678">
  <g id="Group_25" data-name="Group 25">
    <path id="Path_143" data-name="Path 143" d="M9.843,0h0A9.835,9.835,0,0,0,1.874,15.609L.647,19.265l3.782-1.21A9.839,9.839,0,1,0,9.843,0Z" transform="translate(-0.001 0)" fill="#fff"/>
    <path id="Path_144" data-name="Path 144" d="M118.71,126.483a2.777,2.777,0,0,1-1.931,1.389c-.515.109-1.186.2-3.447-.74a12.335,12.335,0,0,1-4.9-4.328,5.62,5.62,0,0,1-1.168-2.968,3.142,3.142,0,0,1,1.006-2.395,1.43,1.43,0,0,1,1.007-.353c.122,0,.231.006.329.011.289.012.434.029.625.485.237.572.816,1.984.884,2.129a.586.586,0,0,1,.042.532,1.7,1.7,0,0,1-.319.451c-.145.167-.283.3-.428.475-.133.156-.283.324-.116.612a8.738,8.738,0,0,0,1.6,1.984,7.234,7.234,0,0,0,2.307,1.423.622.622,0,0,0,.693-.109,11.9,11.9,0,0,0,.769-1.019.549.549,0,0,1,.706-.214c.265.092,1.672.787,1.96.931s.48.214.55.336a2.451,2.451,0,0,1-.167,1.366Z" transform="translate(-103.141 -112.587)" fill="#070706"/>
  </g>
</svg>
